<?xml version="1.0" encoding="utf-8"?>
<!-- Generator: Adobe Illustrator 25.0.0, SVG Export Plug-In . SVG Version: 6.00 Build 0)  -->
<svg version="1.1" id="Layer_1" xmlns="http://www.w3.org/2000/svg" xmlns:xlink="http://www.w3.org/1999/xlink" x="0px" y="0px"
	 viewBox="0 0 4535.43 6803.15" style="enable-background:new 0 0 4535.43 6803.15;" xml:space="preserve">
<style type="text/css">
	.st0{fill:#EBBC00;}
	.st1{fill:#FAE900;}
</style>
<g>
	<circle class="st0" cx="2274.12" cy="3550.96" r="919.55"/>
</g>
<g>
	<path class="st1" d="M2267.72,2368.28c-653.18,0-1182.68,529.5-1182.68,1182.68s529.5,1182.68,1182.68,1182.68
		s1182.68-529.5,1182.68-1182.68S2920.89,2368.28,2267.72,2368.28z M2267.72,4406.41c-472.45,0-855.45-383-855.45-855.45
		s383-855.45,855.45-855.45s855.45,383,855.45,855.45S2740.17,4406.41,2267.72,4406.41z"/>
</g>
<g>
	<polygon class="st1" points="1747.27,3151.25 2694.36,3151.25 2531.42,3314.19 2263.43,3314.19 2263.43,3795.86 2594.19,3795.86 
		2594.19,3950.68 2066,3950.68 2066,3300.64 	"/>
</g>
</svg>
