<?xml version="1.0" encoding="utf-8"?>
<!-- Generator: Adobe Illustrator 25.0.0, SVG Export Plug-In . SVG Version: 6.00 Build 0)  -->
<svg version="1.1" xmlns="http://www.w3.org/2000/svg" xmlns:xlink="http://www.w3.org/1999/xlink" x="0px" y="0px"
	 viewBox="0 0 4535.43 6803.15" style="enable-background:new 0 0 4535.43 6803.15;" xml:space="preserve">
<style type="text/css">
	.st0{display:none;}
	.st1{fill:url(#SVGID_1_);}
	.st2{fill:url(#SVGID_2_);}
	.st3{fill:url(#SVGID_3_);}
	.st4{fill:url(#SVGID_4_);}
	.st5{fill:url(#SVGID_5_);}
	.st6{fill:#FFFFFF;}
	.st7{fill:#A6EDE7;}
</style>
<g id="Layer_2" class="st0">
</g>
<g id="Layer_1">
	<g>
		<linearGradient id="SVGID_1_" gradientUnits="userSpaceOnUse" x1="816.0912" y1="3810.0132" x2="1581.0298" y2="3810.0132">
			<stop  offset="0" style="stop-color:#CCE0F4"/>
			<stop  offset="0.0705" style="stop-color:#C3DEF3"/>
			<stop  offset="0.1878" style="stop-color:#A9D9F1"/>
			<stop  offset="0.3374" style="stop-color:#80D1EE"/>
			<stop  offset="0.5117" style="stop-color:#47C5EA"/>
			<stop  offset="0.5674" style="stop-color:#33C1E8"/>
			<stop  offset="0.8652" style="stop-color:#0075BE"/>
			<stop  offset="0.9944" style="stop-color:#54A8BF"/>
		</linearGradient>
		<polygon class="st1" points="816.09,4054.47 1066.29,4244.23 1581.03,3565.55 1330.83,3375.79 		"/>
	</g>
	<g>
		<linearGradient id="SVGID_2_" gradientUnits="userSpaceOnUse" x1="2602.6023" y1="3756.6846" x2="3471.0437" y2="3756.6846">
			<stop  offset="0" style="stop-color:#CCE0F4"/>
			<stop  offset="0.0705" style="stop-color:#C3DEF3"/>
			<stop  offset="0.1878" style="stop-color:#A9D9F1"/>
			<stop  offset="0.3374" style="stop-color:#80D1EE"/>
			<stop  offset="0.5117" style="stop-color:#47C5EA"/>
			<stop  offset="0.5674" style="stop-color:#33C1E8"/>
			<stop  offset="0.8652" style="stop-color:#0075BE"/>
			<stop  offset="0.9944" style="stop-color:#54A8BF"/>
		</linearGradient>
		<polygon class="st2" points="3281.28,4139.15 3471.04,3888.96 2792.36,3374.22 2602.6,3624.41 		"/>
	</g>
	<g>
		<linearGradient id="SVGID_3_" gradientUnits="userSpaceOnUse" x1="2367.0767" y1="4886.5239" x2="2932.5715" y2="4886.5239">
			<stop  offset="0" style="stop-color:#CCE0F4"/>
			<stop  offset="0.0705" style="stop-color:#C3DEF3"/>
			<stop  offset="0.1878" style="stop-color:#A9D9F1"/>
			<stop  offset="0.3374" style="stop-color:#80D1EE"/>
			<stop  offset="0.5117" style="stop-color:#47C5EA"/>
			<stop  offset="0.5674" style="stop-color:#33C1E8"/>
			<stop  offset="0.8652" style="stop-color:#0075BE"/>
			<stop  offset="0.9944" style="stop-color:#54A8BF"/>
		</linearGradient>
		<polygon class="st3" points="2841.16,5472.92 2367.08,5472.92 2367.08,4300.13 2932.57,4300.13 		"/>
	</g>
	<g>
		<linearGradient id="SVGID_4_" gradientUnits="userSpaceOnUse" x1="1118.2668" y1="4907.7183" x2="1861.3656" y2="4907.7183">
			<stop  offset="0" style="stop-color:#CCE0F4"/>
			<stop  offset="0.0705" style="stop-color:#C3DEF3"/>
			<stop  offset="0.1878" style="stop-color:#A9D9F1"/>
			<stop  offset="0.3374" style="stop-color:#80D1EE"/>
			<stop  offset="0.5117" style="stop-color:#47C5EA"/>
			<stop  offset="0.5674" style="stop-color:#33C1E8"/>
			<stop  offset="0.8652" style="stop-color:#0075BE"/>
			<stop  offset="0.9944" style="stop-color:#54A8BF"/>
		</linearGradient>
		<polygon class="st4" points="1481.59,5476.73 1118.27,5473.81 1314.44,4338.7 1861.37,4482.42 		"/>
	</g>
	<g>
		<linearGradient id="SVGID_5_" gradientUnits="userSpaceOnUse" x1="1295.8707" y1="3558.4919" x2="2932.5715" y2="3558.4919">
			<stop  offset="0" style="stop-color:#CCE0F4"/>
			<stop  offset="0.0705" style="stop-color:#C3DEF3"/>
			<stop  offset="0.1878" style="stop-color:#A9D9F1"/>
			<stop  offset="0.3374" style="stop-color:#80D1EE"/>
			<stop  offset="0.5117" style="stop-color:#47C5EA"/>
			<stop  offset="0.5674" style="stop-color:#33C1E8"/>
			<stop  offset="0.8652" style="stop-color:#0075BE"/>
			<stop  offset="0.9944" style="stop-color:#54A8BF"/>
		</linearGradient>
		<path class="st5" d="M2570.07,5038.96h-911.7c-200.2,0-362.5-162.3-362.5-362.5V2440.52c0-200.2,162.3-362.5,362.5-362.5h911.7
			c200.2,0,362.5,162.3,362.5,362.5v2235.94C2932.57,4876.67,2770.27,5038.96,2570.07,5038.96z"/>
	</g>
	<g>
		<path class="st6" d="M2122.47,1551.35c77.96,0,155.86,7.85,231.53,23.34c73.73,15.09,146.25,37.6,215.55,66.91
			c68.05,28.78,133.69,64.41,195.09,105.9c60.83,41.1,118.04,88.29,170.02,140.28c51.99,51.99,99.19,109.19,140.28,170.02
			c41.48,61.4,77.11,127.04,105.89,195.09c29.31,69.3,51.82,141.82,66.91,215.55c15.48,75.67,23.34,153.57,23.34,231.53
			c0,77.96-7.85,155.86-23.34,231.53c-15.09,73.73-37.6,146.25-66.91,215.55c-28.78,68.05-64.41,133.69-105.89,195.09
			c-41.1,60.83-88.29,118.04-140.28,170.02c-51.99,51.99-109.19,99.19-170.02,140.28c-61.4,41.48-127.04,77.11-195.09,105.9
			c-69.3,29.31-141.82,51.82-215.55,66.91c-75.67,15.48-153.57,23.34-231.53,23.34c-77.96,0-155.86-7.85-231.53-23.34
			c-73.73-15.09-146.25-37.6-215.55-66.91c-68.05-28.78-133.69-64.41-195.09-105.9c-60.83-41.1-118.04-88.29-170.02-140.28
			c-51.99-51.99-99.19-109.19-140.28-170.02c-41.48-61.4-77.11-127.04-105.89-195.09c-29.31-69.3-51.82-141.82-66.91-215.55
			c-15.48-75.67-23.34-153.57-23.34-231.53c0-77.96,7.85-155.86,23.34-231.53c15.09-73.73,37.6-146.25,66.91-215.55
			c28.78-68.05,64.41-133.69,105.89-195.09c41.1-60.83,88.29-118.03,140.28-170.02c51.99-51.99,109.19-99.19,170.02-140.28
			c61.4-41.48,127.04-77.11,195.09-105.9c69.3-29.31,141.82-51.82,215.55-66.91C1966.61,1559.21,2044.51,1551.35,2122.47,1551.35
			 M2122.47,1508.83c-657.85,0-1191.15,533.29-1191.15,1191.15s533.29,1191.15,1191.15,1191.15s1191.15-533.29,1191.15-1191.15
			S2780.32,1508.83,2122.47,1508.83L2122.47,1508.83z"/>
	</g>
	<g>
		<path class="st6" d="M2122.47,1730.02c65.84,0,131.62,6.63,195.53,19.71c62.26,12.74,123.49,31.75,182.01,56.5
			c57.46,24.31,112.89,54.39,164.74,89.42c51.37,34.7,99.68,74.56,143.58,118.47c43.9,43.9,83.76,92.21,118.47,143.58
			c35.03,51.85,65.12,107.28,89.42,164.74c24.75,58.52,43.76,119.76,56.5,182.01c13.08,63.9,19.71,129.69,19.71,195.53
			c0,65.84-6.63,131.62-19.71,195.53c-12.74,62.26-31.75,123.5-56.5,182.01c-24.31,57.47-54.39,112.89-89.42,164.75
			c-34.71,51.37-74.56,99.68-118.47,143.58c-43.9,43.9-92.21,83.76-143.58,118.47c-51.85,35.03-107.28,65.12-164.74,89.42
			c-58.52,24.75-119.76,43.76-182.01,56.5c-63.9,13.08-129.69,19.71-195.53,19.71s-131.62-6.63-195.53-19.71
			c-62.26-12.74-123.49-31.75-182.01-56.5c-57.46-24.31-112.89-54.39-164.74-89.42c-51.37-34.71-99.68-74.56-143.58-118.47
			c-43.9-43.9-83.76-92.21-118.47-143.58c-35.03-51.85-65.12-107.28-89.42-164.75c-24.75-58.52-43.76-119.76-56.5-182.01
			c-13.08-63.9-19.71-129.69-19.71-195.53c0-65.84,6.63-131.62,19.71-195.53c12.74-62.26,31.75-123.5,56.5-182.01
			c24.31-57.46,54.39-112.89,89.42-164.74c34.7-51.37,74.56-99.68,118.47-143.58c43.9-43.9,92.21-83.76,143.58-118.47
			c51.85-35.03,107.28-65.12,164.74-89.42c58.52-24.75,119.76-43.76,182.01-56.5C1990.85,1736.65,2056.63,1730.02,2122.47,1730.02
			 M2122.47,1687.5c-559.18,0-1012.48,453.3-1012.48,1012.48s453.3,1012.48,1012.48,1012.48s1012.48-453.3,1012.48-1012.48
			S2681.64,1687.5,2122.47,1687.5L2122.47,1687.5z"/>
	</g>
</g>
<g id="Layer_3">
	<g>
		<circle class="st7" cx="2367.08" cy="2888.74" r="188.76"/>
	</g>
	<g>
		<circle class="st7" cx="1861.37" cy="2936.11" r="188.76"/>
	</g>
	<path class="st7" d="M2622.15,2804.41L2622.15,2804.41c-3.5,0.93-7.14,1.45-10.81,1.53l-329.41,7.37
		c-23.13,0.52-41.83-15.88-40.5-35.51l4.4-64.76c1.39-20.48,23.87-35.12,47.5-30.95l325.01,57.39
		C2658.22,2746.53,2661.01,2794.04,2622.15,2804.41z"/>
	<path class="st7" d="M1580.49,2748.14L1580.49,2748.14c3.78-1.43,7.74-2.33,11.76-2.67l361.42-30.44
		c25.37-2.14,47.15,17.88,47.15,43.35v84.02c0,26.56-23.6,46.93-49.88,43.03l-361.42-53.58
		C1545.17,2825.28,1538.56,2764.03,1580.49,2748.14z"/>
	<circle class="st7" cx="2122.47" cy="3367.24" r="89.09"/>
</g>
</svg>
